# AST/ASF file generated using VICON BodyLanguage
# -----------------------------------------------
:version 1.10
:name VICON
:units
  mass 1.0
  length 0.45
  angle deg
:documentation
   .ast/.asf automatically generated from VICON data using
   VICON BodyBuilder and BodyLanguage model FoxedUp or BRILLIANT.MOD
:root
   order TX TY TZ RX RY RZ
   axis XYZ
   position 0 0 0  
   orientation 0 0 0 
:bonedata
  begin
     id 1 
     name lhipjoint
     direction 0.734343 -0.627749 0.258209 
     length 2.5437 
     axis 0 0 0  XYZ
  end
  begin
     id 2 
     name lfemur
     direction 0.34202 -0.939693 0  
     length 6.7391  
     axis 0 0 20  XYZ
    dof rx ry rz
    limits (-160.0 20.0)
           (-70.0 70.0)
           (-60.0 70.0)
  end
  begin
     id 3 
     name ltibia
     direction 0.34202 -0.939693 0   
     length 7.21536   
     axis 0 0 20   XYZ
    dof rx
    limits (-10.0 170.0)
  end
  begin
     id 4 
     name lfoot
     direction 0.0489572 -0.134509 0.989702   
     length 1.61313   
     axis -90 7.62852e-016 20   XYZ
    dof rx rz
    limits (-45.0 90.0)
           (-70.0 20.0)
  end
  begin
     id 5 
     name ltoes
     direction 1.53451e-011 -4.21692e-011 1   
     length 0.823104   
     axis -90 7.62852e-016 20   XYZ
    dof rx
    limits (-90.0 20.0)
  end
  begin
     id 6 
     name rhipjoint
     direction -0.746398 -0.615468 0.253157   
     length 2.59446  
     axis 0 0 0  XYZ 
  end
  begin
     id 7 
     name rfemur
     direction -0.34202 -0.939693 0   
     length 6.7075   
     axis 0 0 -20   XYZ
    dof rx ry rz
    limits (-160.0 20.0)
           (-70.0 70.0)
           (-70.0 60.0)
  end
  begin
     id 8 
     name rtibia
     direction -0.34202 -0.939693 0   
     length 7.27262   
     axis 0 0 -20   XYZ
    dof rx
    limits (-10.0 170.0)
 end
 begin
     id 9 
     name rfoot
     direction -0.0455203 -0.125066 0.991104   
     length 1.91095  
     axis -90 -7.62852e-016 -20   XYZ
    dof rx rz
    limits (-45.0 90.0)
           (-20.0 70.0)
  end
  begin
     id 10 
     name rtoes
     direction -1.53601e-011 -4.21913e-011 1   
     length 0.969037   
     axis -90 -7.62852e-016 -20   XYZ
    dof rx
    limits (-90.0 20.0)
  end
  begin
     id 11 
     name lowerback
     direction 0.0181546 0.999122 -0.0377542   
     length 1.99916   
     axis 0 0 0   XYZ
    dof rx ry rz
    limits (-20.0 45.0)
           (-30.0 30.0)
           (-30.0 30.0)
  end
  begin
     id 12 
     name upperback
     direction 0.0203486 0.99589 0.0882534   
     length 1.951   
     axis 0 0 0   XYZ
    dof rx ry rz
    limits (-20.0 45.0)
           (-30.0 30.0)
           (-30.0 30.0)
  end
  begin
     id 13 
     name thorax
     direction 0.0131685 0.994241 0.106355   
     length 1.97461   
     axis 0 0 0   XYZ
    dof rx ry rz
    limits (-20.0 45.0)
           (-30.0 30.0)
           (-30.0 30.0)
  end
  begin
     id 14 
     name lowerneck
     direction -0.0281395 0.999325 0.023617   
     length 1.7959   
     axis 0 0 0   XYZ
    dof rx ry rz
    limits (-20.0 45.0)
           (-30.0 30.0)
           (-30.0 30.0)
  end
  begin
     id 15 
     name upperneck
     direction 0.0288721 0.991984 -0.123019   
     length 1.79917   
     axis 0 0 0   XYZ
    dof rx ry rz
    limits (-20.0 45.0)
           (-30.0 30.0)
           (-30.0 30.0)
  end
  begin
     id 16
     name head
     direction 0.0133797 0.998944 -0.0439492  
     length 1.80902  
     axis 0 0 0   XYZ
    dof rx ry rz
    limits (-20.0 45.0)
           (-30.0 30.0)
           (-30.0 30.0)
  end
  begin
     id 17 
     name lclavicle
     direction 0.919195 0.377107 0.113449  
     length 3.17815  
     axis 0 0 0   XYZ
    dof ry rz
    limits (-20.0 10.0)
           (0.0 20.0)
  end
  begin
     id 18 
     name lhumerus
     direction 1 -4.48959e-011 2.13129e-027   
     length 4.84137   
     axis 180 -30 -90   XYZ
    dof rx ry rz
    limits (-60.0 90.0)
           (-90.0 90.0)
           (-90.0 90.0)
  end
  begin
     id 19
     name lradius
     direction 1 -4.48957e-011 -6.30627e-028   
     length 3.2452   
     axis 180 -30 -90   XYZ
    dof rx
    limits (-10.0 170.0)
  end
  begin
     id 20
     name lwrist
     direction 1 -4.4901e-011 9.13299e-027   
     length 1.6226   
     axis -6.84618e-015 90 90   XYZ
    dof ry
    limits (-180.0 0.0)
 end
  begin
     id 21 
     name lhand
     direction 1 -4.48816e-011 1.82293e-026   
     length 0.521221   
     axis -1.16502e-014 90 90   XYZ
    dof rx rz
    limits (-90.0 90.0)
           (-45.0 45.0)
  end
  begin
     id 22 
     name lfingers
     direction 1 -4.49108e-011 3.65687e-026   
     length 0.420221   
     axis -2.33008e-014 90 90   XYZ
    dof rx
    limits (0.0 90.0)
  end
  begin
     id 23
     name lthumb
     direction 0.707107 -6.34943e-011 0.707107   
     length 0.603356   
     axis -90 45 5.69224e-014   XYZ
    dof rx rz
    limits (-45.0 45.0)
           (-45.0 45.0)
  end
  begin
     id 24 
     name rclavicle
     direction -0.90847 0.38596 0.160368   
     length 3.12973  
     axis 0 0 0   XYZ 
    dof ry rz
    limits (-10.0 20.0)
           (-20.0 0.0)
  end
  begin
     id 25 
     name rhumerus
     direction -1 -4.48974e-011 4.47268e-028  
     length 4.72284   
     axis 180 30 90   XYZ
    dof rx ry rz
    limits (-90.0 60.0)
           (-90.0 90.0)
           (-90.0 90.0)
  end
  begin
     id 26 
     name rradius
     direction -1 -4.48969e-011 3.43203e-027   
     length 3.23459   
     axis 180 30 90   XYZ
    dof rx
    limits (-10.0 170.0)
  end
  begin
     id 27 
     name rwrist
     direction -1 -4.48969e-011 9.12911e-027   
     length 1.6173   
     axis -6.84618e-015 -90 -90   XYZ
    dof ry
    limits (-180.0 0.0)
  end
  begin
     id 28
     name rhand
     direction -1 -4.49194e-011 1.83006e-026   
     length 0.307416   
     axis -1.16502e-014 -90 -90   XYZ
    dof rx rz
    limits (-90.0 90.0)
           (-45.0 45.0)
  end
  begin
     id 29
     name rfingers
     direction -1 -4.48423e-011 3.63103e-026   
     length 0.247847   
     axis -2.33008e-014 -90 -90   XYZ
    dof rx
    limits (0.0 90.0)
  end
  begin
     id 30
     name rthumb
     direction -0.707107 -6.34802e-011 0.707107   
     length 0.35586   
     axis -90 -45 -5.69224e-014   XYZ
    dof rx rz
    limits (-45.0 45.0)
           (-45.0 45.0)
  end
:hierarchy
  begin
    root lhipjoint rhipjoint lowerback
    lhipjoint lfemur
    lfemur ltibia
    ltibia lfoot
    lfoot ltoes
    rhipjoint rfemur
    rfemur rtibia
    rtibia rfoot
    rfoot rtoes
    lowerback upperback
    upperback thorax
    thorax lowerneck lclavicle rclavicle
    lowerneck upperneck
    upperneck head
    lclavicle lhumerus
    lhumerus lradius
    lradius lwrist
    lwrist lhand lthumb
    lhand lfingers
    rclavicle rhumerus
    rhumerus rradius
    rradius rwrist
    rwrist rhand rthumb
    rhand rfingers
  end

#!OML:ASF H:\Terrain\Patient Classification 1\Animal1\Tuesday\Animal1.ASF
:FULLY-SPECIFIED
:DEGREES
148
root 9.93443 18.1324 -4.70753 10.9815 -18.042 2.33343
lowerback -7.98822 0.468763 1.15966
upperback -10.0097 0.541455 1.14369
thorax -5.98744 0.200823 0.564993
lowerneck -2.256 3.42078 -2.39918
upperneck 19.9249 3.86982 5.44916
head 6.22918 2.08923 2.3629
rclavicle -1.05356e-014 -1.59028e-015
rhumerus 10.5838 -6.29602 12.2542
rradius 26.2567
rwrist -34.609
rhand 6.36613 0.499533
rfingers 7.12502
rthumb 31.6721 -26.7716
lclavicle -1.05356e-014 -1.59028e-015
lhumerus -2.09313 20.655 4.19518
lradius 23.4224
lwrist -31.1867
lhand 31.4138 37.3534
lfingers 7.12502
lthumb 54.9733 55.5114
rfemur -23.3919 20.4078 23.2354
rtibia 29.1772
rfoot -30.694 -27.1378
rtoes 66.8908
lfemur -13.6674 -21.6188 -22.3378
ltibia 20.6306
lfoot 33.38 15.1268
ltoes 44.544
149
root 9.9376 18.1305 -4.70875 11.0553 -17.975 2.28089
lowerback -8.00421 0.438097 1.21685
upperback -10.0345 0.499729 1.18098
thorax -6.00544 0.177347 0.571104
lowerneck -2.48635 3.52313 -2.2711
upperneck 20.1433 3.99115 5.48088
head 6.33603 2.16292 2.36888
rclavicle 6.95746e-015 -7.95139e-015
rhumerus 10.6129 -6.22668 12.3411
rradius 26.2897
rwrist -34.7934
rhand 6.01535 0.374582
rfingers 7.12502
rthumb 31.338 -26.9619
lclavicle 6.95746e-015 -7.95139e-015
lhumerus -1.92224 20.8297 4.15754
lradius 23.2213
lwrist -31.4316
lhand 31.3094 37.017
lfingers 7.12502
lthumb 54.8802 55.242
rfemur -23.4208 20.3962 23.3112
rtibia 29.0884
rfoot -30.1096 -28.2165
rtoes 66.7187
lfemur -13.8095 -21.5416 -22.2428
ltibia 20.7436
lfoot 33.4946 14.8878
ltoes 44.3603
150
root 9.93974 18.1319 -4.70476 11.0755 -17.9399 2.23537
lowerback -7.9914 0.420737 1.25551
upperback -10.0378 0.47697 1.21682
thorax -6.01646 0.164752 0.586331
lowerneck -2.71645 3.57854 -2.15723
upperneck 20.3496 4.05721 5.46511
head 6.44263 2.20507 2.35914
rclavicle 1.21259e-014 -9.54166e-015
rhumerus 10.7363 -6.51549 12.2763
rradius 26.1635
rwrist -34.4014
rhand 6.43051 0.728428
rfingers 7.12502
rthumb 31.7334 -26.5306
lclavicle 1.21259e-014 -9.54166e-015
lhumerus -1.94467 20.2629 3.96478
lradius 23.326
lwrist -30.7624
lhand 31.1411 36.6465
lfingers 7.12502
lthumb 54.7298 54.9789
rfemur -23.3442 20.3247 23.4208
rtibia 28.9897
rfoot -29.3301 -29.1434
rtoes 66.5498
lfemur -13.8654 -21.5698 -22.1874
ltibia 20.865
lfoot 33.68 14.2982
ltoes 43.5826
151
root 9.9423 18.1371 -4.70078 11.0109 -17.9353 2.26787
lowerback -7.91615 0.406119 1.21548
upperback -10.0429 0.461623 1.23744
thorax -6.06456 0.160468 0.629534
lowerneck -2.76751 3.55352 -2.09888
upperneck 20.3672 4.03208 5.38412
head 6.46184 2.19145 2.32381
rclavicle -1.25234e-014 -8.74653e-015
rhumerus 10.7895 -6.46552 12.4135
rradius 26.1283
rwrist -34.3558
rhand 6.98303 0.903454
rfingers 7.12502
rthumb 32.2595 -26.2501
lclavicle -1.25234e-014 -8.74653e-015
lhumerus -2.00798 19.8398 3.84411
lradius 23.5317
lwrist -30.3053
lhand 30.6813 36.8132
lfingers 7.12502
lthumb 54.3184 55.4337
rfemur -23.2228 20.2435 23.4475
rtibia 28.933
rfoot -28.3964 -29.9647
rtoes 66.3406
lfemur -13.8676 -21.7028 -22.213
ltibia 20.9334
lfoot 34.0287 13.1144
ltoes 41.6208
152
root 9.94507 18.1423 -4.70053 10.9587 -17.8769 2.25639
lowerback -7.83804 0.35658 1.21468
upperback -10.0418 0.399786 1.29336
thorax -6.10742 0.131761 0.686641
lowerneck -2.67429 3.51974 -2.10233
upperneck 20.1552 4.00136 5.32577
head 6.38055 2.17038 2.29668
rclavicle -1.08536e-013 -4.37326e-014
rhumerus 10.8798 -6.52587 12.5083
rradius 26.1434
rwrist -34.4541
rhand 7.09827 0.862513
rfingers 7.12502
rthumb 32.3692 -26.2687
lclavicle -1.08536e-013 -4.37326e-014
lhumerus -1.99494 19.9832 3.83248
lradius 23.5254
lwrist -30.5131
lhand 29.9211 37.0001
lfingers 7.12502
lthumb 53.636 56.0813
rfemur -23.148 20.1771 23.5002
rtibia 28.9189
rfoot -27.3661 -30.7962
rtoes 66.1467
lfemur -13.7615 -21.6594 -22.2144
ltibia 20.9479
lfoot 34.2259 12.5715
ltoes 41.2017
153
root 9.94727 18.1409 -4.70322 10.9307 -17.7729 2.32609
lowerback -7.78968 0.292835 1.13349
upperback -10.056 0.3198 1.31413
thorax -6.15019 0.0979451 0.751785
lowerneck -2.60409 3.46255 -2.24072
upperneck 19.8908 3.92479 5.42342
head 6.28115 2.12941 2.33854
rclavicle -3.18055e-014 -3.97569e-015
rhumerus 11.0281 -7.24759 12.2307
rradius 26.0092
rwrist -33.8544
rhand 7.20919 0.996606
rfingers 7.12502
rthumb 32.4748 -26.113
lclavicle -3.18055e-014 -3.97569e-015
lhumerus -1.85588 20.3748 3.86288
lradius 23.4203
lwrist -31.0353
lhand 29.3281 36.9899
lfingers 7.12502
lthumb 53.1019 56.4175
rfemur -23.158 20.1627 23.4377
rtibia 28.9209
rfoot -26.4841 -31.5636
rtoes 65.9761
lfemur -13.625 -21.5817 -22.2899
ltibia 20.9569
lfoot 33.9191 13.6207
ltoes 43.261
154
root 9.95007 18.141 -4.70365 10.9478 -17.6902 2.33448
lowerback -7.75399 0.269122 1.13946
upperback -10.0926 0.289017 1.30904
thorax -6.20995 0.0816825 0.742604
lowerneck -2.6548 3.4323 -2.4138
upperneck 19.8139 3.85548 5.68607
head 6.25725 2.10367 2.44641
rclavicle -2.48481e-014 1.51076e-014
rhumerus 11.0944 -7.65434 12.0558
rradius 25.8747
rwrist -33.4268
rhand 7.32936 1.17977
rfingers 7.12502
rthumb 32.5891 -25.9062
lclavicle -2.48481e-014 1.51076e-014
lhumerus -1.63512 21.0802 3.98901
lradius 23.3593
lwrist -31.8841
lhand 29.166 36.9285
lfingers 7.12502
lthumb 52.9556 56.449
rfemur -23.1916 20.1753 23.4186
rtibia 28.9107
rfoot -25.6287 -32.326
rtoes 65.7233
lfemur -13.6919 -21.7379 -22.226
ltibia 20.9798
lfoot 33.5188 14.4306
ltoes 44.1617
155
root 9.95142 18.1467 -4.70316 10.9763 -17.642 2.25537
lowerback -7.72522 0.268485 1.2034
upperback -10.081 0.286925 1.30872
thorax -6.21322 0.0764717 0.706367
lowerneck -2.84996 3.41221 -2.37863
upperneck 19.8362 3.80315 5.81937
head 6.29797 2.09331 2.48516
rclavicle -4.6118e-014 0
rhumerus 10.9634 -7.28725 12.3151
rradius 25.891
rwrist -33.787
rhand 7.16048 1.29661
rfingers 7.12502
rthumb 32.4284 -25.8225
lclavicle -4.6118e-014 0
lhumerus -1.357 21.7708 4.12167
lradius 23.2717
lwrist -32.5482
lhand 28.6458 36.2827
lfingers 7.12502
lthumb 52.4854 56.0955
rfemur -23.1762 20.2448 23.4917
rtibia 28.8901
rfoot -24.7147 -33.0352
rtoes 65.4101
lfemur -13.8751 -21.9022 -22.0393
ltibia 21.0016
lfoot 33.6828 13.8437
ltoes 42.8767
156
root 9.9511 18.1499 -4.70469 10.9522 -17.6133 2.23786
lowerback -7.71082 0.261829 1.19551
upperback -10.0357 0.278027 1.29434
thorax -6.17168 0.0724829 0.695197
lowerneck -2.8856 3.39721 -2.36479
upperneck 19.6677 3.76517 5.94583
head 6.24932 2.08547 2.51769
rclavicle 1.39149e-014 4.77083e-015
rhumerus 10.8477 -7.28405 12.4361
rradius 25.8457
rwrist -33.6917
rhand 6.76193 1.41525
rfingers 7.12502
rthumb 32.0491 -25.7808
lclavicle 1.39149e-014 4.77083e-015
lhumerus -1.15457 21.8756 4.16698
lradius 23.2116
lwrist -32.5795
lhand 27.4036 35.7354
lfingers 7.12502
lthumb 51.3583 56.2146
rfemur -23.113 20.398 23.5078
rtibia 28.8489
rfoot -23.9193 -33.7542
rtoes 65.1254
lfemur -13.8771 -21.8926 -21.9904
ltibia 21.0451
lfoot 33.5772 13.9828
ltoes 42.981
